<?xml version="1.0" encoding="UTF-8"?>
<svg xmlns="http://www.w3.org/2000/svg" xmlns:xlink="http://www.w3.org/1999/xlink" width="3333.33" height="2000" viewBox="0 0 3333.33 2000">
<path fill-rule="evenodd" fill="rgb(0%, 0%, 0%)" fill-opacity="1" d="M 73.011719 1886.527344 L 3276.28125 1886.527344 C 3283.589844 1886.527344 3289.519531 1880.265625 3289.519531 1872.550781 C 3289.519531 1864.855469 3283.589844 1858.59375 3276.28125 1858.59375 L 73.011719 1858.59375 C 65.703125 1858.59375 59.765625 1864.855469 59.765625 1872.550781 C 59.765625 1880.265625 65.703125 1886.527344 73.011719 1886.527344 "/>
<path fill-rule="evenodd" fill="rgb(0%, 0%, 0%)" fill-opacity="1" d="M 1826.019531 1793.855469 L 2106.761719 1989.070312 C 2112.859375 1993.3125 2121.089844 1991.53125 2125.121094 1985.085938 C 2129.128906 1978.660156 2127.441406 1969.988281 2121.339844 1965.746094 L 1840.601562 1770.53125 C 1834.5 1766.289062 1826.28125 1768.070312 1822.261719 1774.492188 C 1818.230469 1780.9375 1819.921875 1789.613281 1826.019531 1793.855469 "/>
<path fill-rule="evenodd" fill="rgb(0%, 0%, 0%)" fill-opacity="1" d="M 1867.089844 1718.203125 L 2178.691406 1843.546875 C 2185.519531 1846.296875 2193.179688 1842.683594 2195.789062 1835.464844 C 2198.390625 1828.273438 2194.960938 1820.203125 2188.128906 1817.453125 L 1876.53125 1692.109375 C 1869.691406 1689.363281 1862.039062 1692.972656 1859.441406 1700.164062 C 1856.828125 1707.382812 1860.261719 1715.457031 1867.089844 1718.203125 "/>
<path fill-rule="evenodd" fill="rgb(0%, 0%, 0%)" fill-opacity="1" d="M 474.632812 1055.101562 L 193.785156 860.070312 C 187.679688 855.828125 179.457031 857.621094 175.429688 864.070312 C 171.421875 870.488281 173.109375 879.160156 179.21875 883.398438 L 460.066406 1078.433594 C 466.171875 1082.675781 474.394531 1080.886719 478.40625 1074.464844 C 482.433594 1068.015625 480.738281 1059.34375 474.632812 1055.101562 "/>
<path fill-rule="evenodd" fill="rgb(0%, 0%, 0%)" fill-opacity="1" d="M 433.613281 1130.765625 L 121.941406 1005.621094 C 115.109375 1002.878906 107.453125 1006.496094 104.847656 1013.714844 C 102.25 1020.90625 105.6875 1028.980469 112.519531 1031.722656 L 424.191406 1156.867188 C 431.027344 1159.609375 438.683594 1155.992188 441.277344 1148.800781 C 443.882812 1141.578125 440.445312 1133.507812 433.613281 1130.765625 "/>
<path fill-rule="evenodd" fill="rgb(3.500366%, 0%, 0%)" fill-opacity="1" d="M 1296.820312 644.289062 C 1763.96875 761.839844 2037.269531 1058.203125 1958.328125 1514.898438 C 1934.320312 1653.714844 1917.390625 1742.660156 1742.089844 1875.363281 L 677.808594 1869.664062 C 544.824219 1777.558594 287.898438 1565.414062 353.878906 1219.601562 C 440.40625 766.019531 829.671875 526.738281 1296.820312 644.289062 "/>
<path fill-rule="evenodd" fill="rgb(3.500366%, 0%, 0%)" fill-opacity="1" d="M 2295.429688 1131.710938 C 2355.589844 1244.621094 1941.53125 1321.511719 1941.53125 1321.511719 L 1768.328125 892.078125 C 1881.71875 977.378906 2270.789062 1085.492188 2295.429688 1131.710938 "/>
<path fill-rule="evenodd" fill="rgb(3.500366%, 0%, 0%)" fill-opacity="1" d="M 632.324219 261.410156 C 478.941406 153.921875 544.589844 882.421875 544.589844 882.421875 L 1072.128906 718.839844 C 1072.128906 718.839844 752.109375 345.378906 632.324219 261.410156 "/>
<path fill-rule="evenodd" fill="rgb(0%, 0%, 0%)" fill-opacity="1" d="M 2243.75 1873.078125 C 2256.859375 1833.503906 2599.210938 1740.3125 2738.089844 1070.613281 C 2863.378906 466.46875 1925.21875 662.769531 2267.089844 190.578125 C 2547.308594 -196.46875 3058.769531 110.910156 3016.191406 726.039062 C 2988.359375 1128.269531 2933.101562 1506.128906 2524.71875 1874.511719 L 2243.75 1873.078125 "/>
<path fill="none" stroke-width="109.98" stroke-linecap="round" stroke-linejoin="round" stroke="rgb(0%, 0%, 0%)" stroke-opacity="1" stroke-miterlimit="10" d="M 22437.5 1269.21875 C 22568.59375 1664.960938 25992.109375 2596.875 27380.898438 9293.867188 C 28633.789062 15335.3125 19252.1875 13372.304688 22670.898438 18094.21875 C 25473.085938 21964.6875 30587.695312 18890.898438 30161.914062 12739.609375 C 29883.59375 8717.304688 29331.015625 4938.710938 25247.1875 1254.882812 Z M 22437.5 1269.21875 " transform="matrix(0.1, 0, 0, -0.1, 0, 2000)"/>
<path fill-rule="evenodd" fill="rgb(100%, 100%, 100%)" fill-opacity="1" d="M 763.695312 1135.449219 C 836.15625 1135.449219 894.984375 1198.902344 894.984375 1277.054688 C 894.984375 1355.207031 836.15625 1418.65625 763.695312 1418.65625 C 691.238281 1418.65625 632.410156 1355.207031 632.410156 1277.054688 C 632.410156 1198.902344 691.238281 1135.449219 763.695312 1135.449219 "/>
<path fill-rule="evenodd" fill="rgb(0%, 0%, 0%)" fill-opacity="1" d="M 794.1875 1171.09375 C 842.132812 1171.09375 881.058594 1210.453125 881.058594 1258.933594 C 881.058594 1307.414062 842.132812 1346.773438 794.1875 1346.773438 C 746.246094 1346.773438 707.320312 1307.414062 707.320312 1258.933594 C 707.320312 1210.453125 746.246094 1171.09375 794.1875 1171.09375 "/>
<path fill-rule="evenodd" fill="rgb(100%, 100%, 100%)" fill-opacity="1" d="M 841.363281 1218.015625 C 853.050781 1218.015625 862.53125 1228.019531 862.53125 1240.339844 C 862.53125 1252.660156 853.050781 1262.664062 841.363281 1262.664062 C 829.683594 1262.664062 820.199219 1252.660156 820.199219 1240.339844 C 820.199219 1228.019531 829.683594 1218.015625 841.363281 1218.015625 "/>
<path fill-rule="evenodd" fill="rgb(100%, 100%, 100%)" fill-opacity="1" d="M 810.980469 1197.761719 C 817.21875 1197.761719 822.277344 1203.097656 822.277344 1209.675781 C 822.277344 1216.25 817.21875 1221.589844 810.980469 1221.589844 C 804.746094 1221.589844 799.6875 1216.25 799.6875 1209.675781 C 799.6875 1203.097656 804.746094 1197.761719 810.980469 1197.761719 "/>
<path fill-rule="evenodd" fill="rgb(100%, 100%, 100%)" fill-opacity="1" d="M 1177.671875 1252.363281 C 1250.128906 1252.363281 1308.960938 1315.8125 1308.960938 1393.964844 C 1308.960938 1472.117188 1250.128906 1535.566406 1177.671875 1535.566406 C 1105.210938 1535.566406 1046.378906 1472.117188 1046.378906 1393.964844 C 1046.378906 1315.8125 1105.210938 1252.363281 1177.671875 1252.363281 "/>
<path fill-rule="evenodd" fill="rgb(0%, 0%, 0%)" fill-opacity="1" d="M 1201.96875 1288.960938 C 1249.460938 1288.960938 1288.011719 1328.425781 1288.011719 1377.03125 C 1288.011719 1425.640625 1249.460938 1465.101562 1201.96875 1465.101562 C 1154.480469 1465.101562 1115.921875 1425.640625 1115.921875 1377.03125 C 1115.921875 1328.425781 1154.480469 1288.960938 1201.96875 1288.960938 "/>
<path fill-rule="evenodd" fill="rgb(100%, 100%, 100%)" fill-opacity="1" d="M 1251.988281 1332.964844 C 1263.058594 1332.964844 1272.039062 1342.4375 1272.039062 1354.105469 C 1272.039062 1365.773438 1263.058594 1375.246094 1251.988281 1375.246094 C 1240.929688 1375.246094 1231.949219 1365.773438 1231.949219 1354.105469 C 1231.949219 1342.4375 1240.929688 1332.964844 1251.988281 1332.964844 "/>
<path fill-rule="evenodd" fill="rgb(100%, 100%, 100%)" fill-opacity="1" d="M 1222.269531 1315.433594 C 1227.820312 1315.433594 1232.320312 1320.183594 1232.320312 1326.035156 C 1232.320312 1331.886719 1227.820312 1336.636719 1222.269531 1336.636719 C 1216.71875 1336.636719 1212.21875 1331.886719 1212.21875 1326.035156 C 1212.21875 1320.183594 1216.71875 1315.433594 1222.269531 1315.433594 "/>
</svg>
